<svg width="784" height="784" viewBox="0 0 784 784" fill="none" xmlns="http://www.w3.org/2000/svg">
<g filter="url(#filter0_i_110_328)">
<circle cx="392" cy="392" r="392" fill="white"/>
</g>
<mask id="mask0_110_328" style="mask-type:alpha" maskUnits="userSpaceOnUse" x="36" y="36" width="711" height="711">
<circle cx="391.5" cy="391.5" r="355.5" fill="#D9D9D9"/>
</mask>
<g mask="url(#mask0_110_328)">
<rect y="33" width="747" height="571" rx="86" fill="url(#paint0_linear_110_328)"/>
<circle cx="390.5" cy="282.5" r="189.5" fill="url(#paint1_linear_110_328)" stroke="black" stroke-width="10"/>
<path d="M329.478 278.297C350.373 271.471 368.162 273.488 385.084 279.385C401.267 285.025 418.164 294.944 434.871 302.929L440.066 305.427C492.456 330.78 505.74 342.446 570.059 390.244C604.076 415.524 625.199 438.136 641.661 456.99C658.423 476.187 669.113 489.838 683.394 499.624C689.114 503.544 697.629 505.883 708.265 506.669C718.741 507.443 730.292 506.643 741.233 505.145C752.128 503.653 762.129 501.509 769.424 499.731C773.062 498.845 776.005 498.053 778.023 497.489C779.032 497.207 779.808 496.983 780.323 496.831C780.581 496.755 780.773 496.697 780.896 496.66C780.958 496.642 781.002 496.628 781.028 496.62C781.041 496.616 781.05 496.614 781.055 496.612L781.057 496.611L795.163 492.264L793.967 506.979L775.783 730.727L775.25 737.298L768.999 739.396L467.835 840.48L465.467 841.275L463.004 840.863L62.3994 773.853L56.1992 772.815L54.4463 766.778L12.3965 621.967L8.35449 608.045L22.8047 609.211H22.8115C22.8186 609.212 22.8304 609.213 22.8467 609.214C22.8796 609.216 22.932 609.221 23.002 609.227C23.1418 609.237 23.3554 609.254 23.6396 609.275C24.2089 609.318 25.0634 609.38 26.1865 609.458C28.4336 609.613 31.756 609.829 36.0215 610.068C44.5534 610.547 56.8537 611.119 71.8691 611.488C101.921 612.228 142.751 612.155 185.971 608.922C229.254 605.684 274.574 599.301 313.748 587.559C353.189 575.736 384.924 558.911 402.758 535.831C441.88 485.2 454.282 455.297 457.466 438.95C459.032 430.907 458.307 426.458 457.73 424.495C457.72 424.459 457.708 424.424 457.697 424.39C457.439 424.283 457.165 424.17 456.877 424.052C454.33 423.003 450.641 421.489 446.08 419.629C436.958 415.908 424.354 410.806 410.429 405.282C383.349 394.54 351.587 382.327 330.635 375.501L328.641 374.857C317.9 371.423 305.299 369.386 293.858 367.76C288.305 366.971 282.83 366.251 278.396 365.534C274.259 364.865 269.675 364.01 266.381 362.6C262.753 361.046 260.611 358.043 259.733 355.042C258.974 352.443 259.18 350.026 259.45 348.421C260 345.162 261.446 341.772 263.002 338.758C266.239 332.486 271.535 324.857 277.932 317.25C290.501 302.304 309.283 285.128 328.48 278.629L329.478 278.297Z" fill="#3187FE" stroke="black" stroke-width="20"/>
</g>
<defs>
<filter id="filter0_i_110_328" x="0" y="0" width="784" height="788" filterUnits="userSpaceOnUse" color-interpolation-filters="sRGB">
<feFlood flood-opacity="0" result="BackgroundImageFix"/>
<feBlend mode="normal" in="SourceGraphic" in2="BackgroundImageFix" result="shape"/>
<feColorMatrix in="SourceAlpha" type="matrix" values="0 0 0 0 0 0 0 0 0 0 0 0 0 0 0 0 0 0 127 0" result="hardAlpha"/>
<feOffset dy="8"/>
<feGaussianBlur stdDeviation="2"/>
<feComposite in2="hardAlpha" operator="arithmetic" k2="-1" k3="1"/>
<feColorMatrix type="matrix" values="0 0 0 0 0 0 0 0 0 0 0 0 0 0 0 0 0 0 0.25 0"/>
<feBlend mode="normal" in2="shape" result="effect1_innerShadow_110_328"/>
</filter>
<linearGradient id="paint0_linear_110_328" x1="373.5" y1="33" x2="373.5" y2="604" gradientUnits="userSpaceOnUse">
<stop stop-color="#FBFF0C"/>
<stop offset="0.5" stop-color="#E413FF"/>
<stop offset="1" stop-color="#3942FF"/>
</linearGradient>
<linearGradient id="paint1_linear_110_328" x1="390.5" y1="98" x2="390.5" y2="467" gradientUnits="userSpaceOnUse">
<stop stop-color="#FFD231"/>
<stop offset="1" stop-color="#FA9600"/>
</linearGradient>
</defs>
</svg>
