<?xml version="1.0" encoding="UTF-8"?>
<svg width="32" height="32" viewBox="0 0 32 32" xmlns="http://www.w3.org/2000/svg">
  <defs>
    <linearGradient id="fireGradient32" x1="0%" y1="0%" x2="100%" y2="100%">
      <stop offset="0%" style="stop-color:#ff6b35;stop-opacity:1" />
      <stop offset="30%" style="stop-color:#f7931e;stop-opacity:1" />
      <stop offset="70%" style="stop-color:#ffd23f;stop-opacity:1" />
      <stop offset="100%" style="stop-color:#fff3cd;stop-opacity:1" />
    </linearGradient>
    <linearGradient id="shadowGradient32" x1="0%" y1="0%" x2="100%" y2="100%">
      <stop offset="0%" style="stop-color:#d63031;stop-opacity:0.9" />
      <stop offset="100%" style="stop-color:#e17055;stop-opacity:0.2" />
    </linearGradient>
    <radialGradient id="innerGlow32" cx="50%" cy="40%" r="60%">
      <stop offset="0%" style="stop-color:#ffeaa7;stop-opacity:1" />
      <stop offset="100%" style="stop-color:#fdcb6e;stop-opacity:0.3" />
    </radialGradient>
  </defs>
  
  <!-- Background circle with shadow -->
  <circle cx="16" cy="16" r="15" fill="url(#shadowGradient32)" stroke="#d63031" stroke-width="1"/>
  
  <!-- Main flame shape -->
  <path d="M16 4 C12 8, 10 12, 12 16 C11 18, 12 20, 14 21 C13 23, 15 25, 18 24 C21 25, 23 23, 22 21 C24 20, 25 18, 24 16 C26 12, 24 8, 20 4 C19 6, 17 6, 16 4 Z" 
        fill="url(#fireGradient32)" 
        stroke="#d63031" 
        stroke-width="0.5"/>
  
  <!-- Inner flame layers -->
  <path d="M17 7 C15 10, 14 13, 15 15 C14 16, 15 17, 16 17.5 C15.5 19, 17 20, 18 19.5 C19 20, 20.5 19, 20 17.5 C21 17, 22 16, 21 15 C22 13, 21 10, 19 7 C18.5 8.5, 17.5 8.5, 17 7 Z" 
        fill="url(#innerGlow32)" 
        opacity="0.9"/>
  
  <!-- Core flame -->
  <ellipse cx="17" cy="14" rx="3" ry="5" fill="#ffeaa7" opacity="0.8"/>
  <ellipse cx="17.5" cy="15" rx="2" ry="3.5" fill="#fff3cd" opacity="0.7"/>
  
  <!-- Spark effects -->
  <circle cx="12" cy="10" r="1" fill="#ffeaa7" opacity="0.8"/>
  <circle cx="22" cy="12" r="0.7" fill="#ffeaa7" opacity="0.7"/>
  <circle cx="11" cy="18" r="0.8" fill="#fdcb6e" opacity="0.6"/>
  <circle cx="23" cy="17" r="0.5" fill="#ffd23f" opacity="0.5"/>
  <circle cx="13" cy="22" r="0.6" fill="#f7931e" opacity="0.4"/>
  
  <!-- Additional flame details -->
  <path d="M14 12 C13.5 13, 14 14, 14.5 14.2 C14.2 15, 15 15.5, 15.5 15.2 C16 15.5, 16.5 15, 16.2 14.2 C16.5 14, 17 13, 16.5 12 C16.8 11.2, 16.2 10.5, 15.5 11 C15 10.5, 14.2 11.2, 14 12 Z" 
        fill="#fff3cd" 
        opacity="0.6"/>
</svg>