<?xml version="1.0" encoding="UTF-8"?>
<svg width="16" height="16" viewBox="0 0 16 16" xmlns="http://www.w3.org/2000/svg">
  <defs>
    <linearGradient id="fireGradient" x1="0%" y1="0%" x2="100%" y2="100%">
      <stop offset="0%" style="stop-color:#ff6b35;stop-opacity:1" />
      <stop offset="50%" style="stop-color:#f7931e;stop-opacity:1" />
      <stop offset="100%" style="stop-color:#ffd23f;stop-opacity:1" />
    </linearGradient>
    <linearGradient id="shadowGradient" x1="0%" y1="0%" x2="100%" y2="100%">
      <stop offset="0%" style="stop-color:#d63031;stop-opacity:0.8" />
      <stop offset="100%" style="stop-color:#e17055;stop-opacity:0.3" />
    </linearGradient>
  </defs>
  
  <!-- Background circle -->
  <circle cx="8" cy="8" r="7.5" fill="url(#shadowGradient)" stroke="#d63031" stroke-width="0.5"/>
  
  <!-- Main flame shape -->
  <path d="M8 2 C6 4, 5 6, 6 8 C5.5 9, 6 10, 7 10.5 C6.5 11.5, 7.5 12.5, 9 12 C10.5 12.5, 11.5 11.5, 11 10.5 C12 10, 12.5 9, 12 8 C13 6, 12 4, 10 2 C9.5 3, 8.5 3, 8 2 Z" 
        fill="url(#fireGradient)" 
        stroke="#d63031" 
        stroke-width="0.3"/>
  
  <!-- Inner flame highlight -->
  <path d="M8.5 3.5 C7.5 5, 7 6.5, 7.5 7.5 C7 8, 7.5 8.5, 8 8.8 C7.8 9.5, 8.5 10, 9 9.8 C9.5 10, 10.2 9.5, 10 8.8 C10.5 8.5, 11 8, 10.5 7.5 C11 6.5, 10.5 5, 9.5 3.5 C9.2 4.2, 8.8 4.2, 8.5 3.5 Z" 
        fill="#ffeaa7" 
        opacity="0.8"/>
  
  <!-- Core flame -->
  <ellipse cx="8.5" cy="7" rx="1.5" ry="2.5" fill="#fdcb6e" opacity="0.9"/>
  
  <!-- Spark effects -->
  <circle cx="6" cy="5" r="0.5" fill="#ffeaa7" opacity="0.7"/>
  <circle cx="11" cy="6" r="0.3" fill="#ffeaa7" opacity="0.6"/>
  <circle cx="5.5" cy="9" r="0.4" fill="#fdcb6e" opacity="0.5"/>
</svg>