<?xml version="1.0" encoding="UTF-8"?>
<svg width="32" height="32" viewBox="0 0 32 32" xmlns="http://www.w3.org/2000/svg">
  <defs>
    <linearGradient id="surfGradient" x1="0%" y1="0%" x2="100%" y2="100%">
      <stop offset="0%" style="stop-color:#00A8E6;stop-opacity:1" />
      <stop offset="50%" style="stop-color:#0078D4;stop-opacity:1" />
      <stop offset="100%" style="stop-color:#004578;stop-opacity:1" />
    </linearGradient>
    <linearGradient id="waveGradient" x1="0%" y1="0%" x2="100%" y2="0%">
      <stop offset="0%" style="stop-color:#FFFFFF;stop-opacity:0.9" />
      <stop offset="100%" style="stop-color:#E3F2FD;stop-opacity:0.7" />
    </linearGradient>
    <radialGradient id="highlightGradient" cx="30%" cy="30%" r="70%">
      <stop offset="0%" style="stop-color:#FFFFFF;stop-opacity:0.3" />
      <stop offset="100%" style="stop-color:#FFFFFF;stop-opacity:0" />
    </radialGradient>
  </defs>
  
  <!-- Background circle -->
  <circle cx="16" cy="16" r="15" fill="url(#surfGradient)" stroke="#003D5C" stroke-width="2"/>
  
  <!-- Highlight overlay -->
  <circle cx="16" cy="16" r="15" fill="url(#highlightGradient)"/>
  
  <!-- Surfboard -->
  <ellipse cx="16" cy="16" rx="10" ry="3" fill="url(#waveGradient)" transform="rotate(-15 16 16)"/>
  
  <!-- Wave lines -->
  <path d="M6 20 Q10 18 14 20 T22 20" stroke="#FFFFFF" stroke-width="2" fill="none" opacity="0.8"/>
  <path d="M4 24 Q8 22 12 24 T20 24" stroke="#FFFFFF" stroke-width="1.5" fill="none" opacity="0.6"/>
  <path d="M8 26 Q12 25 16 26 T24 26" stroke="#FFFFFF" stroke-width="1" fill="none" opacity="0.4"/>
  
  <!-- Surfboard fin -->
  <path d="M16 12 L18 16 L16 18 L15 16 Z" fill="#FFFFFF" opacity="0.9"/>
  
  <!-- Small wave details -->
  <circle cx="12" cy="14" r="1" fill="#FFFFFF" opacity="0.5"/>
  <circle cx="20" cy="18" r="0.8" fill="#FFFFFF" opacity="0.4"/>
</svg>